<?xml version="1.0" encoding="UTF-8" standalone="no"?>
<svg
   width="10.552704mm"
   height="10.552704mm"
   viewBox="0 0 10.552704 10.552704"
   version="1.1"
   id="svg8394"
   xmlns="http://www.w3.org/2000/svg"
   xmlns:svg="http://www.w3.org/2000/svg">
  <defs
     id="defs8391" />
  <path
     d="m 2.8669192,5.420463 q 0,-0.6259673 0.1666515,-1.1937052 Q 3.2002221,3.65902 3.5183749,3.2368559 3.8365277,2.8146918 4.3061818,2.5672164 4.7758359,2.3051835 5.366691,2.3051835 q 0.4393539,0 0.8484074,0.1746886 0.4090536,0.1601312 0.7272064,0.5386231 0.3181528,0.3639345 0.5151045,0.9753445 0.1969517,0.6114101 0.1969517,1.5139676 0,0.8734429 -0.2424021,1.4411807 -0.227252,0.5531805 -0.5908552,0.8734429 -0.348453,0.3202624 -0.7423565,0.4367214 -0.3939034,0.116459 -0.7120562,0.116459 -0.7575065,0 -1.2423108,-0.3639344 Q 3.639576,7.6477423 3.3517235,7.1673488 3.0790211,6.6723978 2.9729701,6.1774468 2.8669192,5.6824959 2.8669192,5.420463 Z M 1.7761097,5.6533811 q 0,0.9025576 0.2878525,1.5867546 0.2878525,0.6841969 0.7423565,1.150033 0.454504,0.4512788 1.030209,0.6841969 0.575705,0.2329181 1.13626,0.2329181 0.7120561,0 1.3635118,-0.2620328 Q 7.0029053,8.783218 7.5180099,8.288267 8.0331144,7.7787588 8.336117,7.0363323 8.6542697,6.2939059 8.6542697,5.3331187 q 0,-1.0044592 -0.242402,-1.7323283 Q 8.1694656,2.858364 7.760412,2.3925278 7.3513584,1.9121342 6.8059536,1.6937735 6.2605488,1.4608555 5.6545435,1.4608555 q -1.045359,0 -1.7877155,0.3930492 -0.7272064,0.3784919 -1.1968605,0.9899019 -0.4696541,0.61141 -0.681756,1.3538365 -0.2121018,0.7424263 -0.2121018,1.455738 z"
     id="path396"
     style="fill:#008000;stroke-width:0.1" />
</svg>
