<?xml version="1.0" encoding="UTF-8" standalone="no"?>
<svg
   width="10.494728mm"
   height="10.550346mm"
   viewBox="0 0 10.494728 10.550346"
   version="1.1"
   id="svg8394"
   xmlns="http://www.w3.org/2000/svg"
   xmlns:svg="http://www.w3.org/2000/svg">
  <defs
     id="defs8391" />
    <path
       d="m 2.7452901,8.3726354 q 0,0.0762 0.1143,0.1524 0.1143,0.0635 0.2539999,0.127 0.1397,0.0635 0.2794,0.0889 0.1524,0.0381 0.2032,0.0381 0.127,0 0.254,-0.1397 0.1397,-0.1397 0.3683,-0.4445 0.2286,-0.3048 0.6096,-0.8001 0.381,-0.4953 1.0033,-1.1938 l 2.0574,1.5748 q 0.5334,0.4064 0.9144,0.6604 0.381,0.254 0.4953,0.254 0.0762,0 0.2032,-0.0762 0.1397,-0.0635 0.2666999,-0.1651 0.1397,-0.1016 0.2286,-0.2159 0.1016001,-0.127 0.1016001,-0.2286 0,-0.0635 -0.0635,-0.0762 -0.0635,-0.0254 -0.2540001,-0.0508 -0.1396999,-0.0127 -0.8508999,-0.4064 -0.6985,-0.4064 -1.7145,-1.1938 l -0.8636,-0.6604 q 0.1651,-0.1905 0.4445,-0.4953 0.2794,-0.3175 0.6096,-0.6730999 0.3302,-0.3556 0.6731,-0.7112 0.3429,-0.3683 0.635,-0.6604 0.2921,-0.3048 0.4953,-0.4953 0.2032,-0.2032 0.254,-0.2286 0.1778,-0.127 0.2794,-0.254 0.1015999,-0.127 0.1015999,-0.1905 0,-0.127 -0.0889,-0.1524 -0.0889,-0.0381 -0.1904999,-0.0381 -0.1016,0 -0.3302,0.0127 -0.2159,0 -0.4445,0.0381 -0.2159,0.0254 -0.3937,0.0889 -0.1651,0.0508 -0.1651,0.1524 0,0.1651 -0.2413,0.5588 -0.2286,0.381 -0.5842,0.8509 -0.3429,0.4699 -0.7493,0.9652 -0.4064,0.4952999 -0.7493,0.8762999 -0.889,-0.7111999 -1.5367,-1.2318999 -0.6477,-0.5207 -1.0922,-0.9017 -0.4444999,-0.3937 -0.7111999,-0.6604 -0.2667,-0.2667 -0.4191,-0.4572 -0.1397,-0.1905 -0.1905,-0.3302 -0.0381,-0.1524 -0.0381,-0.2921 0,-0.254 -0.0889,-0.3429 -0.0762,-0.0889 -0.3683,-0.0889 -0.1397,0 -0.3175,0.0381 -0.19050002,0.0254 -0.35560002,0.0889 -0.17779999,0.0508 -0.29209999,0.127 -0.1143,0.0762 -0.1143,0.1651 0,0.0762 0.0508,0.1905 0.0381,0.1143 0.2032,0.3175 0.15239999,0.1905 0.48260001,0.508 0.3175,0.3175 0.8636,0.7874 0.5588,0.4699 1.3842999,1.1303 0.8255,0.6476999 2.0066,1.5366999 -0.7366,0.8382 -1.3462,1.4351 -0.6096,0.5969 -1.0540999,0.8382 -0.2286,0.127 -0.2286,0.254 z"
       id="path638"
       style="fill:#008000;stroke-width:0.1" />
</svg>
